<svg class="feature__image__badging" xmlns="http://www.w3.org/2000/svg" viewBox="0 0 154 44">
  <path class="svg--gray-medium" d="M32.5,43.8v-1h4l0,0.7l0,0.3H32.5z M28.5,43.8h-4v-1h4V43.8z M20.5,43.8h-4v-1h4V43.8z M12.6,43.8h-4v-1h4V43.8 z M4.5,42.8c-1.2-0.7-2.3-1.6-3.1-2.8l0.8-0.6c0.7,1,1.6,1.9,2.7,2.5L4.5,42.8z M40.6,42.7l-0.5-0.9c1.1-0.6,2-1.5,2.7-2.5l0.8,0.5 C42.9,41,41.8,42,40.6,42.7z M0,36c0-0.3,0-0.5,0-0.8V32h1v3.3c0,0.2,0,0.5,0,0.7L0,36z M44.9,35.9l-1-0.1c0-0.2,0-0.3,0-0.5v-3.4h1 v3.4C45,35.5,45,35.7,44.9,35.9z M1,28H0v-4h1V28z M45,27.9h-1v-4h1V27.9z M1,20.1H0v-4h1V20.1z M45,19.9h-1v-4h1V19.9z M1,12.1H0 V8.7c0-0.2,0-0.4,0-0.6l1,0.1c0,0.2,0,0.4,0,0.6V12.1z M45,12h-1V8.7c0-0.2,0-0.5,0-0.7l1-0.1c0,0.3,0,0.5,0,0.8V12z M2.2,4.7 L1.4,4.1C2.1,2.9,3.2,2,4.4,1.3l0.5,0.9C3.8,2.8,2.9,3.6,2.2,4.7z M42.7,4.5c-0.7-1-1.7-1.9-2.8-2.5l0.5-0.9 c1.2,0.7,2.3,1.6,3.1,2.8L42.7,4.5z M36.3,1.2h-4v-1h4V1.2z M28.4,1.2h-4v-1h4V1.2z M20.4,1.2h-4v-1h4V1.2z M12.5,1.2h-4l0-1l0.1,0 l3.9,0V1.2z" />
  <path class="svg--gray-light" d="M91.2,43.3h-28c-4.4,0-8-3.6-8-8V8.7c0-4.4,3.6-8,8-8h28c4.4,0,8,3.6,8,8v26.6C99.2,39.7,95.6,43.3,91.2,43.3" />
  <path class="svg--gray-darker svg--translucent" d="M88.9,28.4h-4.5c-2.5,0-4.6,2.1-4.6,4.6c0,2.5,2.1,4.6,4.6,4.6h4.5c2.5,0,4.6-2.1,4.6-4.6 C93.6,30.5,91.5,28.4,88.9,28.4" />
  <path class="svg--gray-medium" d="M146,43.3h-28c-4.4,0-8-3.6-8-8V8.7c0-4.4,3.6-8,8-8h28c4.4,0,8,3.6,8,8v26.6C154,39.7,150.4,43.3,146,43.3" />
  <path class="svg--gray-darker svg--translucent" d="M143.7,28.4h-4.5c-2.5,0-4.6,2.1-4.6,4.6c0,2.5,2.1,4.6,4.6,4.6h4.5c2.5,0,4.6-2.1,4.6-4.6 C148.3,30.5,146.2,28.4,143.7,28.4" />
</svg>
