<svg class="feature__image__json" xmlns="http://www.w3.org/2000/svg" viewBox="0 0 55 64">
  <path class="svg--gray-medium" d="M32,27.7c-0.9,0-1.7,0.3-2.3,1c-0.6,0.7-1,1.5-1,2.5c0,1,0.3,1.8,1,2.5c0.6,0.7,1.4,1,2.3,1 c0.9,0,1.7-0.4,2.3-1.1c0.6-0.7,1-1.5,1-2.5c0-0.9-0.3-1.8-0.9-2.5C33.7,28.1,32.9,27.7,32,27.7z" />
  <path class="svg--gray-medium" d="M4.9,42.7h47.8c1,0,1.9-0.8,1.9-1.9V22.4c0-1-0.8-1.9-1.9-1.9h-9.5L43,1.7c0-0.8-0.6-1.4-1.4-1.4H1.9 c-0.8,0-1.4,0.6-1.4,1.4v53.9c0,4.5,3.6,8.1,8.1,8.1l37.8,0c4.5,0,8.1-3.6,8.1-8.2c0-0.8-0.6-1.4-1.4-1.4H15.3 c-0.8,0-1.4,0.6-1.4,1.4c0,2.9-2.4,5.3-5.3,5.3c-2.9,0-5.3-2.4-5.3-5.3V41.9C3.7,42.3,4.2,42.7,4.9,42.7z M15.7,32.8 c0,1-0.3,1.8-1,2.5c-0.7,0.7-1.5,1-2.5,1c-0.8,0-1.5-0.2-2.1-0.7c-0.6-0.5-1-1.1-1.3-1.8c-0.1-0.2,0-0.4,0-0.6 c0.1-0.2,0.3-0.3,0.5-0.4c0.2-0.1,0.4,0,0.6,0.1c0.2,0.1,0.3,0.2,0.4,0.5c0.1,0.4,0.4,0.7,0.7,1c0.3,0.3,0.8,0.4,1.2,0.4 c0.5,0,0.9-0.2,1.3-0.6c0.4-0.4,0.6-0.8,0.6-1.4v-5.7c0-0.2,0.1-0.4,0.2-0.6c0.2-0.2,0.3-0.2,0.6-0.2c0.2,0,0.4,0.1,0.6,0.2 c0.2,0.2,0.2,0.3,0.2,0.6L15.7,32.8L15.7,32.8z M24.2,35.5c-0.8,0.6-1.7,0.9-2.7,0.9c-1.3,0-2.5-0.5-3.7-1.4 c-0.2-0.1-0.2-0.3-0.3-0.5c0-0.2,0-0.4,0.2-0.5c0.1-0.2,0.3-0.2,0.5-0.3c0.2,0,0.4,0,0.5,0.2c0.9,0.7,1.8,1.1,2.7,1.1 c0.7,0,1.3-0.2,1.7-0.5c0.4-0.3,0.7-0.7,0.7-1.1c0-0.7-0.8-1.2-2.5-1.6h0c-0.7-0.1-1.4-0.3-1.9-0.6c-0.5-0.3-0.9-0.6-1.2-1 c-0.3-0.4-0.4-0.8-0.4-1.3c0-0.8,0.4-1.5,1.1-2c0.7-0.5,1.6-0.8,2.5-0.8c0.4,0,0.9,0.1,1.3,0.2c0.4,0.1,0.8,0.3,1,0.4 c0.2,0.1,0.5,0.3,0.9,0.5c0.2,0.1,0.3,0.3,0.3,0.5c0,0.2,0,0.4-0.1,0.6c-0.1,0.2-0.3,0.3-0.5,0.3c-0.2,0-0.4,0-0.6-0.1 c-0.4-0.3-0.8-0.5-1.2-0.7c-0.3-0.2-0.7-0.2-1.1-0.2c-0.6,0-1.1,0.1-1.5,0.4c-0.4,0.3-0.6,0.6-0.6,0.9c0,0.2,0,0.3,0.1,0.4 c0.3,0.4,1,0.8,2.2,1h0c0.8,0.2,1.5,0.4,2,0.6c1.2,0.6,1.8,1.4,1.8,2.4C25.4,34.2,25,35,24.2,35.5z M35.5,34.9 c-0.4,0.5-0.9,0.9-1.5,1.1c-0.6,0.3-1.2,0.4-1.9,0.4c-1.4,0-2.6-0.5-3.5-1.5c-1-1-1.4-2.2-1.4-3.6c0-1.4,0.5-2.6,1.4-3.6 c0.9-1,2.1-1.5,3.5-1.5c1.4,0,2.5,0.5,3.5,1.5c0.9,1,1.4,2.2,1.4,3.6C36.9,32.6,36.4,33.8,35.5,34.9z M41.2,26.8l4.6,6.4v-5.9 c0-0.2,0.1-0.4,0.2-0.5c0.2-0.2,0.3-0.2,0.5-0.2s0.4,0.1,0.6,0.2c0.2,0.2,0.2,0.3,0.2,0.5v8.3c0,0.2-0.1,0.4-0.2,0.6 c-0.2,0.2-0.3,0.2-0.6,0.2c-0.2,0-0.4-0.1-0.6-0.3L45.9,36l-4.6-6.4v5.9c0,0.2-0.1,0.4-0.2,0.6c-0.2,0.2-0.3,0.2-0.6,0.2 c-0.2,0-0.4-0.1-0.6-0.2c-0.2-0.2-0.2-0.3-0.2-0.6v-8.3c0-0.3,0.1-0.5,0.3-0.6s0.4-0.2,0.6-0.2S41,26.6,41.2,26.8z M3.3,3.1h36.8 l0.1,17.4H4.9c-0.6,0-1.2,0.3-1.5,0.8L3.3,3.1L3.3,3.1z M16.6,57h34.8c-0.6,2.2-2.7,3.9-5.1,3.9l-31.6,0 C15.7,59.8,16.4,58.4,16.6,57z" />
</svg>
