<svg xmlns="http://www.w3.org/2000/svg" viewBox="0 0 344 72">
  <!-- Logo Mark -->
  <g>
    <!-- Cube BG -->
    <polygon class="svg--gray-darker" points="0.9,18.1 0.9,53.9 31.8,71.7 62.7,53.9 62.7,18.1 31.8,0.3"/>
    <!-- Top Face -->
    <polygon class="svg--blue-lighter" points="31.8,5.3 5.3,20.6 31.8,35.9 58.3,20.6"/>
    <!-- Left Face -->
    <polygon class="svg--blue" points="18.8,47.5 18.8,43.9 29.6,50.1 29.6,38.5 18.8,32.2 18.8,28.4 16,26.8 16,30.6 5.2,24.4 5.2,36 16,42.3 16,45.9 7.4,40.9 7.4,52.2 27.5,63.8 27.5,52.5" />
    <!-- Right Face -->
    <polygon class="svg--blue-light" points="47.5,45.9 47.5,42.3 58.3,36 58.3,24.4 47.5,30.6 47.5,26.8 44.7,28.4 44.7,32.2 33.9,38.5 33.9,50.1 44.7,43.9 44.7,47.5 36.1,52.5 36.1,63.8 56.2,52.2 56.2,40.9" />
  </g>
  <!-- Logo Type -->
  <g>
    <!-- H -->
    <path class="svg--gray-darker svg--reversable" d="M102.5,18.5h6.4v35.4h-6.4V38.2H87.2v15.7h-6.4V18.5h6.4v14.1h15.4V18.5z" />
    <!-- I -->
    <path class="svg--gray-darker svg--reversable" d="M117.4,18.5h6.4v35.4h-6.4V18.5z" />
    <!-- E -->
    <path class="svg--gray-darker svg--reversable" d="M132.3,53.9V18.5H155V24h-16.3v8.7h14.5V38h-14.5v10.4h17.5v5.5H132.3z" />
    <!-- R -->
    <path class="svg--gray-darker svg--reversable" d="M172,18.1c5.1,0,9,0.9,11.7,2.8c2.7,1.9,4.1,4.7,4.1,8.6c0,4.8-2.4,8-7.1,9.7c0.6,0.8,1.4,1.7,2.2,2.9 c0.8,1.1,1.6,2.3,2.5,3.6c0.8,1.3,1.7,2.7,2.4,4c0.8,1.4,1.5,2.7,2.1,4.1h-7.2c-0.6-1.2-1.3-2.5-2.1-3.7c-0.7-1.2-1.5-2.4-2.3-3.6 c-0.8-1.2-1.5-2.3-2.3-3.3c-0.7-1-1.4-2-2.1-2.8c-0.5,0-0.9,0.1-1.2,0.1c-0.3,0-0.7,0-1,0h-3.1v13.4h-6.4V19c1.6-0.3,3.2-0.6,5-0.7 C169,18.2,170.6,18.1,172,18.1z M172.4,23.7c-1.4,0-2.6,0.1-3.8,0.2v11.4h2.8c1.6,0,2.9-0.1,4.1-0.3c1.2-0.2,2.2-0.5,3-0.9 c0.8-0.4,1.4-1,1.8-1.8c0.4-0.7,0.6-1.7,0.6-2.9c0-1.1-0.2-2-0.6-2.8c-0.4-0.7-1-1.3-1.8-1.8c-0.8-0.4-1.7-0.8-2.7-0.9 C174.9,23.8,173.7,23.7,172.4,23.7z" />
    <!-- P -->
    <path class="svg--blue svg--reversable" d="M204.2,18.2c5,0,8.7,1,11.2,2.9c2.4,1.9,3.7,4.6,3.7,8.1c0,2-0.4,3.7-1.1,5.1c-0.7,1.4-1.7,2.6-3.1,3.4 c-1.3,0.9-3,1.5-4.9,1.9c-1.9,0.4-4.1,0.6-6.5,0.6h-4.8v13.7h-3.5V19.2c1.2-0.3,2.7-0.6,4.3-0.7C201.2,18.3,202.8,18.2,204.2,18.2z M204.3,21.2c-1.3,0-2.4,0-3.3,0.1c-0.9,0.1-1.7,0.2-2.3,0.2v15.6h4.4c1.9,0,3.6-0.1,5.1-0.3c1.5-0.2,2.8-0.6,3.9-1.2 c1.1-0.6,1.9-1.4,2.5-2.5c0.6-1.1,0.9-2.4,0.9-4c0-1.6-0.3-2.9-0.9-3.9c-0.6-1-1.5-1.8-2.5-2.4c-1-0.6-2.2-1-3.5-1.3 C207.1,21.3,205.7,21.2,204.3,21.2z" />
    <!-- L -->
    <path class="svg--blue svg--reversable" d="M245.6,50.9v3h-20.1V18.5h3.5v32.4H245.6z" />
    <!-- A -->
    <path class="svg--blue svg--reversable" d="M276.3,53.9c-0.7-1.7-1.3-3.4-1.9-5c-0.6-1.6-1.1-3.2-1.6-4.7h-17.3c-0.6,1.5-1.2,3.1-1.7,4.7 c-0.6,1.6-1.2,3.3-1.8,5h-3.6c1.3-3.7,2.6-7.1,3.8-10.3c1.2-3.2,2.4-6.2,3.5-9c1.1-2.8,2.3-5.6,3.4-8.2c1.1-2.6,2.3-5.2,3.6-7.9 h3.1c1.2,2.6,2.4,5.2,3.6,7.9c1.1,2.6,2.3,5.3,3.4,8.2c1.2,2.8,2.3,5.8,3.5,9s2.5,6.6,3.9,10.3H276.3z M264.2,22.5 c-1.3,2.9-2.5,5.9-3.7,8.9c-1.2,3-2.5,6.3-3.8,9.8h15.1c-1.3-3.5-2.6-6.8-3.8-9.8C266.7,28.4,265.5,25.4,264.2,22.5z" />
    <!-- N -->
    <path class="svg--blue svg--reversable" d="M309.3,53.9c-0.7-1.2-1.5-2.6-2.5-4.2c-1-1.6-2.1-3.3-3.3-5.1c-1.2-1.8-2.5-3.7-3.8-5.6 c-1.3-1.9-2.6-3.8-3.9-5.6c-1.3-1.8-2.6-3.5-3.8-5.1c-1.3-1.6-2.4-3-3.3-4.1v29.8h-3.4V18.5h2.8c1.7,1.9,3.6,4.2,5.6,6.7 c2,2.5,3.9,5.1,5.8,7.8c1.9,2.6,3.7,5.2,5.3,7.7c1.7,2.5,3,4.7,4.1,6.6V18.5h3.4v35.4H309.3z" />
    <!-- E -->
    <path class="svg--blue svg--reversable" d="M321.4,53.9V18.5h20.4v3h-16.9v12.3H340v3h-15.1v14.1h18.3v3H321.4z" />
  </g>
</svg>
