<svg class="feature__image__position" xmlns="http://www.w3.org/2000/svg" viewBox="0 0 138 84">
  <path class="svg--gray-light" d="M32.6,27.9V16.4l4.9-2.7v-2.2c0-4.4-3.6-8-8-8H8.5c-4.4,0-8,3.6-8,8v19.9c0,4.4,3.6,8,8,8h21.1c4.4,0,8-3.6,8-8 v-0.9L32.6,27.9z" />
  <path class="svg--gray-light" d="M129.5,3.5h-21.1c-4.4,0-8,3.6-8,8v2.1l5.2,2.8v11.5l-5.2,2.8v0.7c0,4.4,3.6,8,8,8h21.1c4.4,0,8-3.6,8-8V11.5 C137.5,7.1,133.9,3.5,129.5,3.5z" />
  <path class="svg--gray-light" d="M83.3,48h-2.2l-2.4,4.5h-19L57.2,48h-2.5c-4.4,0-8,3.6-8,8v19.9c0,4.4,3.6,8,8,8h28.6c4.4,0,8-3.6,8-8V56 C91.3,51.6,87.7,48,83.3,48z" />
  <path class="svg--gray-medium" d="M86.8,42.7H51.2c-4.4,0-8-3.6-8-8V8.1c0-4.4,3.6-8,8-8h35.6c4.4,0,8,3.6,8,8v26.6 C94.8,39.1,91.2,42.7,86.8,42.7z" />
</svg>
