<svg class="feature__image__sequence" xmlns="http://www.w3.org/2000/svg" viewBox="0 0 120 62">
  <path class="svg--gray-light" d="M111.8,0.1H8.2c-4.4,0-8,3.6-8,8v45.9c0,4.4,3.6,8,8,8h103.6c4.4,0,8-3.6,8-8V8.1 C119.8,3.7,116.2,0.1,111.8,0.1z M69.8,36.8l-10.7,5.7l-10.7-5.7V25.3l10.7-5.7l10.7,5.7V36.8z" />
  <path class="svg--gray-medium" d="M48.5,36.8V25.3l5.5-3v-4.7c0-4.4-3.6-8-8-8H17.9c-4.4,0-8,3.6-8,8v26.7c0,4.4,3.6,8,8,8H46c4.4,0,8-3.6,8-8 v-4.6L48.5,36.8z" />
  <path class="svg--gray-medium" d="M100.4,9.7H72.4c-4.4,0-8,3.6-8,8v4.7l5.5,3v11.5l-5.5,3v4.6c0,4.4,3.6,8,8,8h28.1c4.4,0,8-3.6,8-8V17.7 C108.4,13.3,104.8,9.7,100.4,9.7z" />
</svg>
